<mxfile host="app.diagrams.net" agent="Mozilla/5.0 (X11; Linux x86_64; rv:133.0) Gecko/20100101 Firefox/133.0" version="26.0.2">
  <diagram name="Page-1" id="RClKflblpL0X5N0nQ1S4">
    <mxGraphModel dx="1434" dy="760" grid="1" gridSize="10" guides="1" tooltips="1" connect="1" arrows="1" fold="1" page="1" pageScale="1" pageWidth="827" pageHeight="1169" math="0" shadow="0">
      <root>
        <mxCell id="0" />
        <mxCell id="1" parent="0" />
        <mxCell id="I6LZB-cjvMHLC-GU9Fcu-2" value="" style="rounded=0;whiteSpace=wrap;html=1;" parent="1" vertex="1">
          <mxGeometry x="290" y="140" width="170" height="290" as="geometry" />
        </mxCell>
        <mxCell id="I6LZB-cjvMHLC-GU9Fcu-3" value="Plan Module" style="text;align=center;fontStyle=1;verticalAlign=middle;spacingLeft=3;spacingRight=3;strokeColor=none;rotatable=0;points=[[0,0.5],[1,0.5]];portConstraint=eastwest;html=1;" parent="1" vertex="1">
          <mxGeometry x="290" y="140" width="80" height="26" as="geometry" />
        </mxCell>
        <mxCell id="I6LZB-cjvMHLC-GU9Fcu-8" style="rounded=0;orthogonalLoop=1;jettySize=auto;html=1;dashed=1;" parent="1" source="I6LZB-cjvMHLC-GU9Fcu-4" target="I6LZB-cjvMHLC-GU9Fcu-7" edge="1">
          <mxGeometry relative="1" as="geometry" />
        </mxCell>
        <mxCell id="I6LZB-cjvMHLC-GU9Fcu-9" style="rounded=0;orthogonalLoop=1;jettySize=auto;html=1;dashed=1;" parent="1" source="I6LZB-cjvMHLC-GU9Fcu-4" target="I6LZB-cjvMHLC-GU9Fcu-6" edge="1">
          <mxGeometry relative="1" as="geometry" />
        </mxCell>
        <mxCell id="I6LZB-cjvMHLC-GU9Fcu-4" value="shared/" style="html=1;whiteSpace=wrap;fillColor=#6B6B6B;fontColor=#FFFFFF;" parent="1" vertex="1">
          <mxGeometry x="110" y="260" width="110" height="50" as="geometry" />
        </mxCell>
        <mxCell id="I6LZB-cjvMHLC-GU9Fcu-10" style="rounded=0;orthogonalLoop=1;jettySize=auto;html=1;startArrow=classic;startFill=1;" parent="1" source="I6LZB-cjvMHLC-GU9Fcu-5" target="I6LZB-cjvMHLC-GU9Fcu-7" edge="1">
          <mxGeometry relative="1" as="geometry" />
        </mxCell>
        <mxCell id="I6LZB-cjvMHLC-GU9Fcu-11" style="rounded=0;orthogonalLoop=1;jettySize=auto;html=1;" parent="1" source="I6LZB-cjvMHLC-GU9Fcu-5" target="I6LZB-cjvMHLC-GU9Fcu-6" edge="1">
          <mxGeometry relative="1" as="geometry" />
        </mxCell>
        <mxCell id="I6LZB-cjvMHLC-GU9Fcu-5" value="StudyCourse Frontend" style="html=1;whiteSpace=wrap;fillColor=#6B6B6B;fontColor=#FFFFFF;" parent="1" vertex="1">
          <mxGeometry x="510" y="260" width="110" height="50" as="geometry" />
        </mxCell>
        <mxCell id="I6LZB-cjvMHLC-GU9Fcu-6" value="&lt;div&gt;Module&lt;/div&gt;&lt;div&gt;Module&lt;/div&gt;" style="shape=module;align=left;spacingLeft=20;align=center;verticalAlign=top;whiteSpace=wrap;html=1;fillColor=#6B6B6B;fontColor=#FFFFFF;" parent="1" vertex="1">
          <mxGeometry x="320" y="320" width="100" height="50" as="geometry" />
        </mxCell>
        <mxCell id="I6LZB-cjvMHLC-GU9Fcu-7" value="&lt;div&gt;courseOfferings &lt;br&gt;&lt;/div&gt;&lt;div&gt;Module&lt;br&gt;&lt;/div&gt;" style="shape=module;align=left;spacingLeft=20;align=center;verticalAlign=top;whiteSpace=wrap;html=1;fillColor=#6B6B6B;fontColor=#FFFFFF;" parent="1" vertex="1">
          <mxGeometry x="310" y="200" width="120" height="50" as="geometry" />
        </mxCell>
      </root>
    </mxGraphModel>
  </diagram>
</mxfile>
